<svg width="39" height="42" viewBox="0 0 39 42" fill="none" xmlns="http://www.w3.org/2000/svg">
<path d="M17.9327 0C17.8598 0 17.8598 0 17.7869 0H1.02056C0.437383 0 0 0.435233 0 1.01554C0 1.59585 0.437383 2.03109 1.02056 2.03109H15.8187V6.38342C6.92523 7.4715 0 15.0155 0 24.1554C0 25.7513 0.218692 27.2746 0.583178 28.7254C2.40561 35.6891 8.45607 41.057 15.8187 41.8549C16.329 41.9275 16.9121 41.9275 17.4953 42C17.5682 42 17.6411 42 17.714 42C17.7869 42 17.8598 42 17.9327 42C18.0056 42 18.0785 42 18.1514 42C18.2243 42 18.2972 42 18.3701 42C18.443 42 18.5159 42 18.5888 42C29.9607 41.6373 39 32.4249 39 21.0363C39 9.43005 29.5963 0 17.9327 0ZM15.8187 39.7513C8.09159 38.7357 2.11402 32.1347 2.11402 24.1554C2.11402 18.3523 5.3215 13.2021 10.0598 10.5181C11.8093 9.50259 13.7776 8.84974 15.8187 8.55959V39.7513ZM17.9327 8.41451C22.015 8.41451 25.2953 11.6788 25.2953 15.7409C25.2953 19.8031 22.015 23.0674 17.9327 23.0674V8.41451ZM18.5888 39.8964C18.5159 39.8964 18.443 39.8964 18.3701 39.8964C18.2972 39.8964 18.2243 39.8964 18.1514 39.8964H18.0785H18.0056V25.171C23.2542 25.171 27.4822 20.9637 27.4822 15.7409C27.4822 13.7824 26.8991 11.9689 25.8785 10.5181C24.2019 8.05181 21.3589 6.38342 18.1514 6.31088C18.0785 6.31088 18.0056 6.31088 18.0056 6.31088V2.10363C28.5028 2.10363 36.9589 10.5907 36.9589 20.9637C36.9589 23.7202 36.3757 26.3316 35.2822 28.6528C32.3664 35.1088 26.0243 39.6062 18.5888 39.8964Z" fill="#032CFC"/>
</svg>
